<svg xmlns="http://www.w3.org/2000/svg" xmlns:xlink="http://www.w3.org/1999/xlink" width="397" height="794">
	<circle cx="198" cy="0" r="1" fill="none" stroke="blue" /><polyline fill="none" stroke="black" points="20,578 20,597 34,597 34,578" />
	<polyline fill="none" stroke="black" points="25,268 25,330 50,330 50,268" />
	<polyline fill="none" stroke="black" points="150,221 150,251 161,251 161,221" />
	<polyline fill="none" stroke="black" points="152,276 152,279 184,279 184,276" />
	<polyline fill="none" stroke="black" points="143,247 113,277" />
	<polyline fill="none" stroke="black" points="299,404 306,411" />
	<polyline fill="none" stroke="black" points="78,389 78,428 84,428 84,389" />
	<polyline fill="none" stroke="black" points="111,317 142,348" />
	<polyline fill="none" stroke="black" points="165,150 165,186 198,186 198,150" />
	<polyline fill="none" stroke="black" points="147,192 147,197 184,197 184,192" />
	<polyline fill="none" stroke="black" points="156,124 179,147" />
	<polyline fill="none" stroke="black" points="96,380 96,383 130,383 130,380" />
	<polyline fill="none" stroke="black" points="194,104 176,122" />
	<polyline fill="none" stroke="black" points="142,359 125,376" />
	<polyline fill="none" stroke="black" points="141,203 141,219 156,219 156,203" />
	<polyline fill="none" stroke="black" points="215,74 190,99" />
	<polyline fill="none" stroke="black" points="165,284 137,312" />
	<polyline fill="none" stroke="black" points="128,680 101,707" />
	<polyline fill="none" stroke="black" points="144,350 137,357" />
	<polyline fill="none" stroke="black" points="193,6 193,70 201,70 201,6" />
	<polyline fill="none" stroke="black" points="160,256 174,270" />
</svg>
