<svg xmlns="http://www.w3.org/2000/svg" xmlns:xlink="http://www.w3.org/1999/xlink" width="952" height="1904">
	<circle cx="476" cy="0" r="1" fill="none" stroke="blue" /><polyline fill="none" stroke="black" points="499,1090 499,1231 546,1231 546,1090" />
	<polyline fill="none" stroke="black" points="586,1032 533,1085" />
	<polyline fill="none" stroke="black" points="463,727 463,798 515,798 515,727" />
	<polyline fill="none" stroke="black" points="225,698 225,702 342,702 342,698" />
	<polyline fill="none" stroke="black" points="233,707 304,778" />
	<polyline fill="none" stroke="black" points="521,147 581,207" />
	<polyline fill="none" stroke="black" points="558,1017 567,1026" />
	<polyline fill="none" stroke="black" points="633,262 633,270 800,270 800,262" />
	<polyline fill="none" stroke="black" points="246,321 249,324" />
	<polyline fill="none" stroke="black" points="642,209 579,272" />
	<polyline fill="none" stroke="black" points="499,110 530,141" />
	<polyline fill="none" stroke="black" points="498,389 498,392 542,392 542,389" />
	<polyline fill="none" stroke="black" points="480,505 480,589 494,589 494,505" />
	<polyline fill="none" stroke="black" points="525,277 525,368 591,368 591,277" />
	<polyline fill="none" stroke="black" points="468,856 468,871 529,871 529,856" />
	<polyline fill="none" stroke="black" points="227,1257 227,1277 277,1277 277,1257" />
	<polyline fill="none" stroke="black" points="530,909 563,942" />
	<polyline fill="none" stroke="black" points="496,454 496,463 529,463 529,454" />
	<polyline fill="none" stroke="black" points="423,803 470,850" />
	<polyline fill="none" stroke="black" points="487,370 487,499 555,499 555,370" />
	<polyline fill="none" stroke="black" points="617,1479 598,1498" />
	<polyline fill="none" stroke="black" points="508,875 537,904" />
	<polyline fill="none" stroke="black" points="492,591 492,721 507,721 507,591" />
	<polyline fill="none" stroke="black" points="501,948 565,1012" />
	<polyline fill="none" stroke="black" points="470,3 470,106 521,106 521,3" />
</svg>
