<svg xmlns="http://www.w3.org/2000/svg" xmlns:xlink="http://www.w3.org/1999/xlink" width="1933" height="3866">
	<circle cx="966" cy="0" r="1" fill="none" stroke="blue" /><polyline fill="none" stroke="black" points="946,1754 943,1757" />
	<polyline fill="none" stroke="black" points="344,3562 399,3617" />
	<polyline fill="none" stroke="black" points="964,412 964,444 1076,444 1076,412" />
	<polyline fill="none" stroke="black" points="1073,2492 1100,2519" />
	<polyline fill="none" stroke="black" points="963,1138 963,1169 995,1169 995,1138" />
	<polyline fill="none" stroke="black" points="1460,1577 1483,1600" />
	<polyline fill="none" stroke="black" points="227,3083 186,3124" />
	<polyline fill="none" stroke="black" points="1049,140 1049,249 1054,249 1054,140" />
	<polyline fill="none" stroke="black" points="1075,1138 1121,1184" />
	<polyline fill="none" stroke="black" points="976,1629 957,1648" />
	<polyline fill="none" stroke="black" points="966,1859 926,1899" />
	<polyline fill="none" stroke="black" points="1070,513 1070,561 1127,561 1127,513" />
	<polyline fill="none" stroke="black" points="1669,1362 1672,1365" />
	<polyline fill="none" stroke="black" points="287,1344 307,1364" />
	<polyline fill="none" stroke="black" points="1016,116 1016,136 1051,136 1051,116" />
	<polyline fill="none" stroke="black" points="997,294 1032,329" />
	<polyline fill="none" stroke="black" points="987,1705 944,1748" />
	<polyline fill="none" stroke="black" points="1092,642 1092,656 1101,656 1101,642" />
	<polyline fill="none" stroke="black" points="1029,1052 1029,1088 1112,1088 1112,1052" />
	<polyline fill="none" stroke="black" points="974,1211 994,1231" />
	<polyline fill="none" stroke="black" points="920,1668 953,1701" />
	<polyline fill="none" stroke="black" points="920,1901 930,1911" />
	<polyline fill="none" stroke="black" points="1052,661 1052,869 1131,869 1131,661" />
	<polyline fill="none" stroke="black" points="960,1650 944,1666" />
	<polyline fill="none" stroke="black" points="1126,566 1129,569" />
	<polyline fill="none" stroke="black" points="983,1806 935,1854" />
	<polyline fill="none" stroke="black" points="320,1372 320,1393 509,1393 509,1372" />
	<polyline fill="none" stroke="black" points="968,334 968,408 1048,408 1048,334" />
	<polyline fill="none" stroke="black" points="966,2 1014,50" />
	<polyline fill="none" stroke="black" points="51,44 51,96 87,96 87,44" />
	<polyline fill="none" stroke="black" points="1081,622 1099,640" />
	<polyline fill="none" stroke="black" points="969,54 1025,110" />
	<polyline fill="none" stroke="black" points="958,1541 926,1573" />
	<polyline fill="none" stroke="black" points="250,2119 250,2181 412,2181 412,2119" />
	<polyline fill="none" stroke="black" points="913,1579 959,1625" />
	<polyline fill="none" stroke="black" points="943,1233 943,1351 1008,1351 1008,1233" />
	<polyline fill="none" stroke="black" points="1582,204 1582,210 1810,210 1810,204" />
	<polyline fill="none" stroke="black" points="986,1759 941,1804" />
	<polyline fill="none" stroke="black" points="1031,1093 988,1136" />
	<polyline fill="none" stroke="black" points="1019,1175 985,1209" />
	<polyline fill="none" stroke="black" points="1048,450 1105,507" />
	<polyline fill="none" stroke="black" points="952,1752 945,1759" />
	<polyline fill="none" stroke="black" points="425,749 370,804" />
	<polyline fill="none" stroke="black" points="927,1357 927,1516 1002,1516 1002,1357" />
	<polyline fill="none" stroke="black" points="921,1521 936,1536" />
	<polyline fill="none" stroke="black" points="1057,254 1023,288" />
	<polyline fill="none" stroke="black" points="1133,574 1087,620" />
	<polyline fill="none" stroke="black" points="1092,873 1092,1050 1188,1050 1188,873" />
</svg>
