<svg xmlns="http://www.w3.org/2000/svg" xmlns:xlink="http://www.w3.org/1999/xlink" width="1306" height="1306">
	<circle cx="326" cy="0" r="1" fill="none" stroke="blue" />
	<circle cx="979" cy="0" r="1" fill="none" stroke="blue" /><polyline fill="none" stroke="black" points="306,380 306,454 321,454 321,380" />
	<polyline fill="none" stroke="black" points="320,51 320,87 342,87 342,51" />
	<polyline fill="none" stroke="black" points="322,3 322,37 340,37 340,3" />
	<polyline fill="none" stroke="black" points="350,876 375,901" />
	<polyline fill="none" stroke="black" points="275,213 275,344 292,344 292,213" />
	<polyline fill="none" stroke="black" points="186,515 230,559" />
	<polyline fill="none" stroke="black" points="8,1025 8,1050 77,1050 77,1025" />
	<polyline fill="none" stroke="black" points="28,582 35,589" />
	<polyline fill="none" stroke="black" points="296,682 293,685" />
	<polyline fill="none" stroke="black" points="343,42 340,45" />
	<polyline fill="none" stroke="black" points="323,648 294,677" />
	<polyline fill="none" stroke="black" points="270,710 294,734" />
	<polyline fill="none" stroke="black" points="293,459 293,509 318,509 318,459" />
	<polyline fill="none" stroke="black" points="284,349 312,377" />
	<polyline fill="none" stroke="black" points="186,383 186,389 272,389 272,383" />
	<polyline fill="none" stroke="black" points="311,89 311,177 323,177 323,89" />
	<polyline fill="none" stroke="black" points="296,689 280,705" />
	<polyline fill="none" stroke="black" points="330,530 325,535" />
	<polyline fill="none" stroke="black" points="428,1238 385,1281" />
	<polyline fill="none" stroke="black" points="305,541 305,643 334,643 334,541" />
	<polyline fill="none" stroke="black" points="314,182 286,210" />
	<polyline fill="none" stroke="black" points="297,738 290,745" />
	<polyline fill="none" stroke="black" points="312,511 328,527" />
	<polyline fill="none" stroke="black" points="685,1190 685,1199 694,1199 694,1190" />
	<polyline fill="none" stroke="black" points="797,619 827,649" />
	<polyline fill="none" stroke="black" points="784,1020 784,1104 843,1104 843,1020" />
	<polyline fill="none" stroke="black" points="891,143 891,241 954,241 954,143" />
	<polyline fill="none" stroke="black" points="776,881 776,1014 798,1014 798,881" />
	<polyline fill="none" stroke="black" points="979,2 973,8" />
	<polyline fill="none" stroke="black" points="918,286 877,327" />
	<polyline fill="none" stroke="black" points="720,344 688,376" />
	<polyline fill="none" stroke="black" points="853,375 824,404" />
	<polyline fill="none" stroke="black" points="804,446 804,570 807,570 807,446" />
	<polyline fill="none" stroke="black" points="840,801 795,846" />
	<polyline fill="none" stroke="black" points="741,244 734,251" />
	<polyline fill="none" stroke="black" points="751,573 751,580 761,580 761,573" />
	<polyline fill="none" stroke="black" points="841,574 801,614" />
	<polyline fill="none" stroke="black" points="852,341 852,371 906,371 906,341" />
	<polyline fill="none" stroke="black" points="816,848 788,876" />
	<polyline fill="none" stroke="black" points="877,246 915,284" />
	<polyline fill="none" stroke="black" points="1260,196 1236,220" />
	<polyline fill="none" stroke="black" points="879,332 876,335" />
	<polyline fill="none" stroke="black" points="1179,427 1176,430" />
	<polyline fill="none" stroke="black" points="840,409 806,443" />
	<polyline fill="none" stroke="black" points="953,14 953,140 983,140 983,14" />
	<polyline fill="none" stroke="black" points="768,654 768,797 833,797 833,654" />
</svg>
