<svg xmlns="http://www.w3.org/2000/svg" xmlns:xlink="http://www.w3.org/1999/xlink" width="433" height="866">
	<circle cx="216" cy="0" r="1" fill="none" stroke="blue" /><polyline fill="none" stroke="black" points="269,289 255,303" />
	<polyline fill="none" stroke="black" points="234,485 234,563 239,563 239,485" />
	<polyline fill="none" stroke="black" points="266,242 266,277 332,277 332,242" />
	<polyline fill="none" stroke="black" points="276,176 293,193" />
	<polyline fill="none" stroke="black" points="338,580 338,591 377,591 377,580" />
	<polyline fill="none" stroke="black" points="3,83 6,86" />
	<polyline fill="none" stroke="black" points="226,336 260,370" />
	<polyline fill="none" stroke="black" points="314,225 302,237" />
	<polyline fill="none" stroke="black" points="288,197 312,221" />
	<polyline fill="none" stroke="black" points="277,376 245,408" />
	<polyline fill="none" stroke="black" points="244,45 244,173 285,173 285,45" />
	<polyline fill="none" stroke="black" points="263,280 263,284 266,284 266,280" />
	<polyline fill="none" stroke="black" points="281,305 252,334" />
	<polyline fill="none" stroke="black" points="48,463 32,479" />
	<polyline fill="none" stroke="black" points="237,410 237,480 254,480 254,410" />
	<polyline fill="none" stroke="black" points="275,747 269,753" />
	<polyline fill="none" stroke="black" points="216,5 253,42" />
</svg>
