<svg xmlns="http://www.w3.org/2000/svg" xmlns:xlink="http://www.w3.org/1999/xlink" width="986" height="1972">
	<circle cx="493" cy="0" r="1" fill="none" stroke="blue" /><polyline fill="none" stroke="black" points="390,684 390,820 473,820 473,684" />
	<polyline fill="none" stroke="black" points="433,640 393,680" />
	<polyline fill="none" stroke="black" points="210,1285 210,1337 339,1337 339,1285" />
	<polyline fill="none" stroke="black" points="72,440 101,469" />
	<polyline fill="none" stroke="black" points="477,824 459,842" />
	<polyline fill="none" stroke="black" points="488,18 488,67 503,67 503,18" />
	<polyline fill="none" stroke="black" points="462,323 429,356" />
	<polyline fill="none" stroke="black" points="412,137 412,286 482,286 482,137" />
	<polyline fill="none" stroke="black" points="366,1130 371,1135" />
	<polyline fill="none" stroke="black" points="405,289 434,318" />
	<polyline fill="none" stroke="black" points="388,1081 365,1104" />
	<polyline fill="none" stroke="black" points="221,1572 262,1613" />
	<polyline fill="none" stroke="black" points="457,2 457,84 521,84 521,2" />
	<polyline fill="none" stroke="black" points="421,631 418,634" />
	<polyline fill="none" stroke="black" points="425,359 425,472 450,472 450,359" />
	<polyline fill="none" stroke="black" points="128,1426 128,1451 204,1451 204,1426" />
	<polyline fill="none" stroke="black" points="530,66 530,104 706,104 706,66" />
	<polyline fill="none" stroke="black" points="696,475 705,484" />
	<polyline fill="none" stroke="black" points="406,848 406,1030 466,1030 466,848" />
	<polyline fill="none" stroke="black" points="404,1141 364,1181" />
	<polyline fill="none" stroke="black" points="342,1185 372,1215" />
	<polyline fill="none" stroke="black" points="470,123 459,134" />
	<polyline fill="none" stroke="black" points="681,416 654,443" />
	<polyline fill="none" stroke="black" points="349,1106 369,1126" />
	<polyline fill="none" stroke="black" points="456,106 467,117" />
	<polyline fill="none" stroke="black" points="425,1035 382,1078" />
	<polyline fill="none" stroke="black" points="420,474 420,627 434,627 434,474" />
	<polyline fill="none" stroke="black" points="448,87 465,104" />
	<polyline fill="none" stroke="black" points="747,1430 789,1472" />
</svg>
