<svg xmlns="http://www.w3.org/2000/svg" xmlns:xlink="http://www.w3.org/1999/xlink" width="824" height="1648">
	<circle cx="412" cy="0" r="1" fill="none" stroke="blue" /><polyline fill="none" stroke="black" points="263,615 263,646 273,646 273,615" />
	<polyline fill="none" stroke="black" points="13,235 13,263 118,263 118,235" />
	<polyline fill="none" stroke="black" points="267,515 297,545" />
	<polyline fill="none" stroke="black" points="315,381 315,414 318,414 318,381" />
	<polyline fill="none" stroke="black" points="412,6 344,74" />
	<polyline fill="none" stroke="black" points="128,1377 63,1442" />
	<polyline fill="none" stroke="black" points="142,404 142,430 211,430 211,404" />
	<polyline fill="none" stroke="black" points="360,79 323,116" />
	<polyline fill="none" stroke="black" points="282,374 282,377 316,377 316,374" />
	<polyline fill="none" stroke="black" points="339,186 284,241" />
	<polyline fill="none" stroke="black" points="216,752 216,785 232,785 232,752" />
	<polyline fill="none" stroke="black" points="385,1000 377,1008" />
	<polyline fill="none" stroke="black" points="231,733 231,746 267,746 267,733" />
	<polyline fill="none" stroke="black" points="301,270 284,287" />
	<polyline fill="none" stroke="black" points="227,830 227,891 263,891 263,830" />
	<polyline fill="none" stroke="black" points="259,649 259,689 264,689 264,649" />
	<polyline fill="none" stroke="black" points="294,444 294,509 330,509 330,444" />
	<polyline fill="none" stroke="black" points="228,788 228,825 235,825 235,788" />
	<polyline fill="none" stroke="black" points="291,338 291,368 321,368 321,338" />
	<polyline fill="none" stroke="black" points="326,416 316,426" />
	<polyline fill="none" stroke="black" points="420,1107 420,1115 430,1115 430,1107" />
	<polyline fill="none" stroke="black" points="781,597 803,619" />
	<polyline fill="none" stroke="black" points="251,705 251,731 255,731 255,705" />
	<polyline fill="none" stroke="black" points="139,75 139,79 157,79 157,75" />
	<polyline fill="none" stroke="black" points="259,291 286,318" />
	<polyline fill="none" stroke="black" points="311,121 311,183 336,183 336,121" />
	<polyline fill="none" stroke="black" points="56,1519 56,1530 88,1530 88,1519" />
	<polyline fill="none" stroke="black" points="322,430 314,438" />
	<polyline fill="none" stroke="black" points="270,549 270,613 302,613 302,549" />
	<polyline fill="none" stroke="black" points="24,455 24,507 104,507 104,455" />
	<polyline fill="none" stroke="black" points="282,245 282,266 285,266 285,245" />
	<polyline fill="none" stroke="black" points="254,692 254,702 280,702 280,692" />
	<polyline fill="none" stroke="black" points="277,322 277,335 295,335 295,322" />
</svg>
