<svg xmlns="http://www.w3.org/2000/svg" xmlns:xlink="http://www.w3.org/1999/xlink" width="269" height="538">
	<circle cx="134" cy="0" r="1" fill="none" stroke="blue" /><polyline fill="none" stroke="black" points="171,330 174,333" />
	<polyline fill="none" stroke="black" points="82,50 67,65" />
	<polyline fill="none" stroke="black" points="193,289 184,298" />
	<polyline fill="none" stroke="black" points="195,156 192,159" />
	<polyline fill="none" stroke="black" points="217,72 235,90" />
	<polyline fill="none" stroke="black" points="134,40 134,150 192,150 192,40" />
	<polyline fill="none" stroke="black" points="171,336 179,344" />
	<polyline fill="none" stroke="black" points="153,21 137,37" />
	<polyline fill="none" stroke="black" points="187,169 187,267 221,267 221,169" />
	<polyline fill="none" stroke="black" points="178,273 188,283" />
	<polyline fill="none" stroke="black" points="194,162 191,165" />
	<polyline fill="none" stroke="black" points="235,371 235,417 238,417 238,371" />
	<polyline fill="none" stroke="black" points="230,147 218,159" />
	<polyline fill="none" stroke="black" points="174,304 174,325 186,325 186,304" />
	<polyline fill="none" stroke="black" points="134,6 145,17" />
</svg>
