<svg xmlns="http://www.w3.org/2000/svg" xmlns:xlink="http://www.w3.org/1999/xlink" width="943" height="1886">
	<circle cx="471" cy="0" r="1" fill="none" stroke="blue" /><polyline fill="none" stroke="black" points="579,755 579,785 795,785 795,755" />
	<polyline fill="none" stroke="black" points="439,549 439,636 466,636 466,549" />
	<polyline fill="none" stroke="black" points="482,255 482,287 485,287 485,255" />
	<polyline fill="none" stroke="black" points="520,852 514,858" />
	<polyline fill="none" stroke="black" points="494,965 516,987" />
	<polyline fill="none" stroke="black" points="475,292 475,333 502,333 502,292" />
	<polyline fill="none" stroke="black" points="498,755 520,777" />
	<polyline fill="none" stroke="black" points="473,82 462,93" />
	<polyline fill="none" stroke="black" points="471,715 505,749" />
	<polyline fill="none" stroke="black" points="310,1020 282,1048" />
	<polyline fill="none" stroke="black" points="522,891 506,907" />
	<polyline fill="none" stroke="black" points="518,779 541,802" />
	<polyline fill="none" stroke="black" points="445,49 445,65 471,65 471,49" />
	<polyline fill="none" stroke="black" points="457,639 482,664" />
	<polyline fill="none" stroke="black" points="452,524 452,547 478,547 478,524" />
	<polyline fill="none" stroke="black" points="458,338 458,342 485,342 485,338" />
	<polyline fill="none" stroke="black" points="802,55 787,70" />
	<polyline fill="none" stroke="black" points="1,828 1,845 28,845 28,828" />
	<polyline fill="none" stroke="black" points="327,1646 348,1667" />
	<polyline fill="none" stroke="black" points="593,1259 569,1283" />
	<polyline fill="none" stroke="black" points="464,27 464,32 470,32 470,27" />
	<polyline fill="none" stroke="black" points="549,806 534,821" />
	<polyline fill="none" stroke="black" points="481,935 507,961" />
	<polyline fill="none" stroke="black" points="645,1830 651,1836" />
	<polyline fill="none" stroke="black" points="510,131 476,165" />
	<polyline fill="none" stroke="black" points="459,103 483,127" />
	<polyline fill="none" stroke="black" points="460,95 463,98" />
	<polyline fill="none" stroke="black" points="509,691 489,711" />
	<polyline fill="none" stroke="black" points="463,412 463,458 500,458 500,412" />
	<polyline fill="none" stroke="black" points="516,911 495,932" />
	<polyline fill="none" stroke="black" points="477,505 477,518 507,518 507,505" />
	<polyline fill="none" stroke="black" points="119,587 119,634 252,634 252,587" />
	<polyline fill="none" stroke="black" points="465,479 465,500 484,500 484,479" />
	<polyline fill="none" stroke="black" points="236,1831 208,1859" />
	<polyline fill="none" stroke="black" points="463,3 463,44 473,44 473,3" />
	<polyline fill="none" stroke="black" points="537,825 516,846" />
	<polyline fill="none" stroke="black" points="4,1316 4,1341 196,1341 196,1316" />
	<polyline fill="none" stroke="black" points="248,1062 248,1071 412,1071 412,1062" />
	<polyline fill="none" stroke="black" points="473,667 473,686 490,686 490,667" />
	<polyline fill="none" stroke="black" points="458,463 468,473" />
	<polyline fill="none" stroke="black" points="453,346 453,409 483,409 483,346" />
	<polyline fill="none" stroke="black" points="476,70 466,80" />
	<polyline fill="none" stroke="black" points="918,25 932,39" />
	<polyline fill="none" stroke="black" points="452,170 452,252 483,252 483,170" />
	<polyline fill="none" stroke="black" points="540,861 512,889" />
</svg>
