<svg xmlns="http://www.w3.org/2000/svg" xmlns:xlink="http://www.w3.org/1999/xlink" width="1839" height="3678">
	<circle cx="919" cy="0" r="1" fill="none" stroke="blue" /><polyline fill="none" stroke="black" points="1074,1847 1074,1900 1137,1900 1137,1847" />
	<polyline fill="none" stroke="black" points="1000,568 1000,612 1032,612 1032,568" />
	<polyline fill="none" stroke="black" points="1061,1215 1061,1254 1119,1254 1119,1215" />
	<polyline fill="none" stroke="black" points="140,2094 111,2123" />
	<polyline fill="none" stroke="black" points="1020,863 1020,921 1037,921 1037,863" />
	<polyline fill="none" stroke="black" points="1049,782 1005,826" />
	<polyline fill="none" stroke="black" points="1095,925 1014,1006" />
	<polyline fill="none" stroke="black" points="1065,164 999,230" />
	<polyline fill="none" stroke="black" points="992,629 992,710 1006,710 1006,629" />
	<polyline fill="none" stroke="black" points="1135,2023 1135,2097 1178,2097 1178,2023" />
	<polyline fill="none" stroke="black" points="363,288 467,392" />
	<polyline fill="none" stroke="black" points="1001,459 1001,529 1038,529 1038,459" />
	<polyline fill="none" stroke="black" points="934,52 1041,159" />
	<polyline fill="none" stroke="black" points="1106,1319 1106,1433 1114,1433 1114,1319" />
	<polyline fill="none" stroke="black" points="899,298 1003,402" />
	<polyline fill="none" stroke="black" points="14,3347 14,3366 274,3366 274,3347" />
	<polyline fill="none" stroke="black" points="1099,1596 1099,1682 1113,1682 1113,1596" />
	<polyline fill="none" stroke="black" points="1109,1435 1109,1519 1121,1519 1121,1435" />
	<polyline fill="none" stroke="black" points="220,2012 220,2069 460,2069 460,2012" />
	<polyline fill="none" stroke="black" points="1060,1686 1060,1800 1120,1800 1120,1686" />
	<polyline fill="none" stroke="black" points="421,625 347,699" />
	<polyline fill="none" stroke="black" points="1203,2343 1203,2383 1225,2383 1225,2343" />
	<polyline fill="none" stroke="black" points="199,2978 199,3013 504,3013 504,2978" />
	<polyline fill="none" stroke="black" points="1527,1689 1527,1724 1824,1724 1824,1689" />
	<polyline fill="none" stroke="black" points="163,3450 218,3505" />
	<polyline fill="none" stroke="black" points="1012,235 955,292" />
	<polyline fill="none" stroke="black" points="1173,1522 1104,1591" />
	<polyline fill="none" stroke="black" points="1161,2220 1161,2340 1209,2340 1209,2220" />
	<polyline fill="none" stroke="black" points="967,716 1029,778" />
	<polyline fill="none" stroke="black" points="1177,2100 1177,2214 1180,2214 1180,2100" />
	<polyline fill="none" stroke="black" points="1057,1259 1112,1314" />
	<polyline fill="none" stroke="black" points="997,407 997,453 1006,453 1006,407" />
	<polyline fill="none" stroke="black" points="1317,3319 1423,3425" />
	<polyline fill="none" stroke="black" points="1045,534 1014,565" />
	<polyline fill="none" stroke="black" points="1609,2127 1609,2134 1761,2134 1761,2127" />
	<polyline fill="none" stroke="black" points="1300,2506 1300,2552 1309,2552 1309,2506" />
	<polyline fill="none" stroke="black" points="1010,1011 1010,1107 1021,1107 1021,1011" />
	<polyline fill="none" stroke="black" points="1095,1806 1095,1842 1146,1842 1146,1806" />
	<polyline fill="none" stroke="black" points="991,615 1003,627" />
	<polyline fill="none" stroke="black" points="37,3087 37,3098 381,3098 381,3087" />
	<polyline fill="none" stroke="black" points="1134,1902 1134,2017 1174,2017 1174,1902" />
	<polyline fill="none" stroke="black" points="972,832 972,857 1032,857 1032,832" />
	<polyline fill="none" stroke="black" points="977,1111 1077,1211" />
	<polyline fill="none" stroke="black" points="879,6 879,48 935,48 935,6" />
	<polyline fill="none" stroke="black" points="1723,316 1723,337 1786,337 1786,316" />
</svg>
