<svg xmlns="http://www.w3.org/2000/svg" xmlns:xlink="http://www.w3.org/1999/xlink" width="1418" height="1418">
	<circle cx="354" cy="0" r="1" fill="none" stroke="blue" />
	<circle cx="1063" cy="0" r="1" fill="none" stroke="blue" /><polyline fill="none" stroke="black" points="260,419 266,425" />
	<polyline fill="none" stroke="black" points="272,227 272,371 300,371 300,227" />
	<polyline fill="none" stroke="black" points="30,69 30,73 92,73 92,69" />
	<polyline fill="none" stroke="black" points="355,808 355,811 363,811 363,808" />
	<polyline fill="none" stroke="black" points="296,554 296,708 343,708 343,554" />
	<polyline fill="none" stroke="black" points="270,475 270,538 301,538 301,475" />
	<polyline fill="none" stroke="black" points="354,5 335,24" />
	<polyline fill="none" stroke="black" points="297,72 297,177 328,177 328,72" />
	<polyline fill="none" stroke="black" points="597,418 597,456 654,456 654,418" />
	<polyline fill="none" stroke="black" points="327,181 287,221" />
	<polyline fill="none" stroke="black" points="363,1080 368,1085" />
	<polyline fill="none" stroke="black" points="293,714 293,802 359,802 359,714" />
	<polyline fill="none" stroke="black" points="523,1206 526,1209" />
	<polyline fill="none" stroke="black" points="308,373 264,417" />
	<polyline fill="none" stroke="black" points="352,29 312,69" />
	<polyline fill="none" stroke="black" points="261,428 302,469" />
	<polyline fill="none" stroke="black" points="580,807 577,810" />
	<polyline fill="none" stroke="black" points="310,543 301,552" />
	<polyline fill="none" stroke="black" points="263,474 263,539 306,539 306,474" />
	<polyline fill="none" stroke="black" points="1024,304 1024,348 1095,348 1095,304" />
	<polyline fill="none" stroke="black" points="1036,108 1036,262 1099,262 1099,108" />
	<polyline fill="none" stroke="black" points="1046,60 1046,76 1057,76 1057,60" />
	<polyline fill="none" stroke="black" points="1045,352 1001,396" />
	<polyline fill="none" stroke="black" points="753,453 753,474 879,474 879,453" />
	<polyline fill="none" stroke="black" points="988,456 988,596 1051,596 1051,456" />
	<polyline fill="none" stroke="black" points="1004,519 1004,533 1048,533 1048,519" />
	<polyline fill="none" stroke="black" points="1044,23 1061,40" />
	<polyline fill="none" stroke="black" points="1217,789 1277,849" />
	<polyline fill="none" stroke="black" points="863,6 863,68 939,68 939,6" />
	<polyline fill="none" stroke="black" points="1066,42 1050,58" />
	<polyline fill="none" stroke="black" points="1063,3 1048,18" />
	<polyline fill="none" stroke="black" points="1099,695 1133,729" />
	<polyline fill="none" stroke="black" points="978,408 1024,454" />
	<polyline fill="none" stroke="black" points="1029,79 1052,102" />
	<polyline fill="none" stroke="black" points="999,399 999,402 1002,402 1002,399" />
	<polyline fill="none" stroke="black" points="1029,265 1063,299" />
	<polyline fill="none" stroke="black" points="1050,109 1050,261 1069,261 1069,109" />
	<polyline fill="none" stroke="black" points="1382,407 1357,432" />
</svg>
